HIERARCHY
ROOT mixamorig:Hips
{
	OFFSET 0.000000 201.639420 0.000000
	CHANNELS 6 Xposition Yposition Zposition Xrotation Yrotation Zrotation
	JOINT mixamorig:Spine
	{
		OFFSET 0.006200 19.524994 -2.481800
		CHANNELS 3 Xrotation Yrotation Zrotation
		JOINT mixamorig:Spine1
		{
			OFFSET -0.000900 22.835007 -2.825400
			CHANNELS 3 Xrotation Yrotation Zrotation
			JOINT mixamorig:Spine2
			{
				OFFSET -0.020600 26.552490 -3.193300
				CHANNELS 3 Xrotation Yrotation Zrotation
				JOINT mixamorig:Neck
				{
					OFFSET -0.060000 30.701813 1.352200
					CHANNELS 3 Xrotation Yrotation Zrotation
					JOINT mixamorig:Head
					{
						OFFSET -0.087200 22.547607 3.670900
						CHANNELS 3 Xrotation Yrotation Zrotation
						JOINT mixamorig:HeadTop_End
						{
							OFFSET -0.830600 40.355194 7.893500
							CHANNELS 3 Xrotation Yrotation Zrotation
							End Site
							{
								OFFSET 0.000000 30.592346 0.000000
							}
						}
						JOINT mixamorig:RightEye
						{
							OFFSET -6.302100 18.118591 16.197100
							CHANNELS 3 Xrotation Yrotation Zrotation
							End Site
							{
								OFFSET 0.000000 30.592346 0.000000
							}
						}
						JOINT mixamorig:LeftEye
						{
							OFFSET 6.741500 18.382690 16.401899
							CHANNELS 3 Xrotation Yrotation Zrotation
							End Site
							{
								OFFSET 0.000000 30.592346 0.000000
							}
						}
					}
				}
				JOINT mixamorig:LeftShoulder
				{
					OFFSET 11.924900 18.230499 1.425400
					CHANNELS 3 Xrotation Yrotation Zrotation
					JOINT mixamorig:LeftArm
					{
						OFFSET 25.435989 -0.697632 -5.229300
						CHANNELS 3 Xrotation Yrotation Zrotation
						JOINT mixamorig:LeftForeArm
						{
							OFFSET 54.684776 0.000000 0.000000
							CHANNELS 3 Xrotation Yrotation Zrotation
							JOINT mixamorig:LeftHand
							{
								OFFSET 55.098175 0.000000 0.000000
								CHANNELS 3 Xrotation Yrotation Zrotation
								JOINT mixamorig:LeftHandMiddle1
								{
									OFFSET 23.369751 0.000000 0.000000
									CHANNELS 3 Xrotation Yrotation Zrotation
									JOINT mixamorig:LeftHandMiddle2
									{
										OFFSET 6.378677 0.000000 0.000000
										CHANNELS 3 Xrotation Yrotation Zrotation
										JOINT mixamorig:LeftHandMiddle3
										{
											OFFSET 6.148331 0.000000 0.000000
											CHANNELS 3 Xrotation Yrotation Zrotation
											JOINT mixamorig:LeftHandMiddle4
											{
												OFFSET 6.582504 0.000000 0.000000
												CHANNELS 3 Xrotation Yrotation Zrotation
												End Site
												{
													OFFSET -1.168900 6.395691 1.028606
												}
											}
										}
									}
								}
								JOINT mixamorig:LeftHandThumb1
								{
									OFFSET 7.235672 -3.848206 5.434273
									CHANNELS 3 Xrotation Yrotation Zrotation
									JOINT mixamorig:LeftHandThumb2
									{
										OFFSET 6.568451 -3.792297 3.792300
										CHANNELS 3 Xrotation Yrotation Zrotation
										JOINT mixamorig:LeftHandThumb3
										{
											OFFSET 6.063080 -3.500519 3.500518
											CHANNELS 3 Xrotation Yrotation Zrotation
											JOINT mixamorig:LeftHandThumb4
											{
												OFFSET 4.793182 -2.767334 2.767349
												CHANNELS 3 Xrotation Yrotation Zrotation
												End Site
												{
													OFFSET 0.101639 6.054260 1.275483
												}
											}
										}
									}
								}
								JOINT mixamorig:LeftHandIndex1
								{
									OFFSET 23.101074 -0.309540 4.992809
									CHANNELS 3 Xrotation Yrotation Zrotation
									JOINT mixamorig:LeftHandIndex2
									{
										OFFSET 6.226883 0.000000 0.000000
										CHANNELS 3 Xrotation Yrotation Zrotation
										JOINT mixamorig:LeftHandIndex3
										{
											OFFSET 6.094330 0.000000 0.000000
											CHANNELS 3 Xrotation Yrotation Zrotation
											JOINT mixamorig:LeftHandIndex4
											{
												OFFSET 5.482605 0.000000 0.000000
												CHANNELS 3 Xrotation Yrotation Zrotation
												End Site
												{
													OFFSET -1.427902 5.233032 0.797164
												}
											}
										}
									}
								}
								JOINT mixamorig:LeftHandRing1
								{
									OFFSET 22.299240 0.021149 -3.964172
									CHANNELS 3 Xrotation Yrotation Zrotation
									JOINT mixamorig:LeftHandRing2
									{
										OFFSET 6.321869 0.000000 0.000000
										CHANNELS 3 Xrotation Yrotation Zrotation
										JOINT mixamorig:LeftHandRing3
										{
											OFFSET 5.899796 0.000000 0.000000
											CHANNELS 3 Xrotation Yrotation Zrotation
											JOINT mixamorig:LeftHandRing4
											{
												OFFSET 6.517899 0.000000 0.000000
												CHANNELS 3 Xrotation Yrotation Zrotation
												End Site
												{
													OFFSET -1.637299 6.232208 0.980890
												}
											}
										}
									}
								}
								JOINT mixamorig:LeftHandPinky1
								{
									OFFSET 20.463791 -0.302338 -8.562233
									CHANNELS 3 Xrotation Yrotation Zrotation
									JOINT mixamorig:LeftHandPinky2
									{
										OFFSET 6.908646 0.000000 0.000000
										CHANNELS 3 Xrotation Yrotation Zrotation
										JOINT mixamorig:LeftHandPinky3
										{
											OFFSET 4.622849 0.000000 0.000000
											CHANNELS 3 Xrotation Yrotation Zrotation
											JOINT mixamorig:LeftHandPinky4
											{
												OFFSET 5.216080 0.000000 0.000000
												CHANNELS 3 Xrotation Yrotation Zrotation
												End Site
												{
													OFFSET -0.606308 5.116241 0.814926
												}
											}
										}
									}
								}
							}
						}
					}
				}
				JOINT mixamorig:RightShoulder
				{
					OFFSET -12.001300 18.284088 1.348900
					CHANNELS 3 Xrotation Yrotation Zrotation
					JOINT mixamorig:RightArm
					{
						OFFSET -25.308500 -0.751312 -5.164599
						CHANNELS 3 Xrotation Yrotation Zrotation
						JOINT mixamorig:RightForeArm
						{
							OFFSET -54.684429 0.000000 0.000000
							CHANNELS 3 Xrotation Yrotation Zrotation
							JOINT mixamorig:RightHand
							{
								OFFSET -55.150291 0.000000 0.000000
								CHANNELS 3 Xrotation Yrotation Zrotation
								JOINT mixamorig:RightHandMiddle1
								{
									OFFSET -23.317566 0.000000 0.000000
									CHANNELS 3 Xrotation Yrotation Zrotation
									JOINT mixamorig:RightHandMiddle2
									{
										OFFSET -6.378403 0.000000 0.000000
										CHANNELS 3 Xrotation Yrotation Zrotation
										JOINT mixamorig:RightHandMiddle3
										{
											OFFSET -6.148193 0.000000 0.000000
											CHANNELS 3 Xrotation Yrotation Zrotation
											JOINT mixamorig:RightHandMiddle4
											{
												OFFSET -6.583389 0.000000 0.000000
												CHANNELS 3 Xrotation Yrotation Zrotation
												End Site
												{
													OFFSET 1.171692 6.395905 1.029786
												}
											}
										}
									}
								}
								JOINT mixamorig:RightHandThumb1
								{
									OFFSET -7.190521 -3.860474 5.435846
									CHANNELS 3 Xrotation Yrotation Zrotation
									JOINT mixamorig:RightHandThumb2
									{
										OFFSET -6.567429 -3.791718 3.791708
										CHANNELS 3 Xrotation Yrotation Zrotation
										JOINT mixamorig:RightHandThumb3
										{
											OFFSET -6.062469 -3.500153 3.500166
											CHANNELS 3 Xrotation Yrotation Zrotation
											JOINT mixamorig:RightHandThumb4
											{
												OFFSET -4.792618 -2.767029 2.767022
												CHANNELS 3 Xrotation Yrotation Zrotation
												End Site
												{
													OFFSET -0.100327 6.053253 1.276754
												}
											}
										}
									}
								}
								JOINT mixamorig:RightHandIndex1
								{
									OFFSET -23.048981 -0.310791 4.992554
									CHANNELS 3 Xrotation Yrotation Zrotation
									JOINT mixamorig:RightHandIndex2
									{
										OFFSET -6.227539 0.000000 0.000000
										CHANNELS 3 Xrotation Yrotation Zrotation
										JOINT mixamorig:RightHandIndex3
										{
											OFFSET -6.095047 0.000000 0.000000
											CHANNELS 3 Xrotation Yrotation Zrotation
											JOINT mixamorig:RightHandIndex4
											{
												OFFSET -5.484772 0.000000 0.000000
												CHANNELS 3 Xrotation Yrotation Zrotation
												End Site
												{
													OFFSET 1.420593 5.237305 0.797056
												}
											}
										}
									}
								}
								JOINT mixamorig:RightHandRing1
								{
									OFFSET -22.246323 0.020569 -3.963762
									CHANNELS 3 Xrotation Yrotation Zrotation
									JOINT mixamorig:RightHandRing2
									{
										OFFSET -6.322128 0.000000 0.000000
										CHANNELS 3 Xrotation Yrotation Zrotation
										JOINT mixamorig:RightHandRing3
										{
											OFFSET -5.900024 0.000000 0.000000
											CHANNELS 3 Xrotation Yrotation Zrotation
											JOINT mixamorig:RightHandRing4
											{
												OFFSET -6.518356 0.000000 0.000000
												CHANNELS 3 Xrotation Yrotation Zrotation
												End Site
												{
													OFFSET 1.636398 6.232697 0.982186
												}
											}
										}
									}
								}
								JOINT mixamorig:RightHandPinky1
								{
									OFFSET -20.411011 -0.303314 -8.561701
									CHANNELS 3 Xrotation Yrotation Zrotation
									JOINT mixamorig:RightHandPinky2
									{
										OFFSET -6.907349 0.000000 0.000000
										CHANNELS 3 Xrotation Yrotation Zrotation
										JOINT mixamorig:RightHandPinky3
										{
											OFFSET -4.623840 0.000000 0.000000
											CHANNELS 3 Xrotation Yrotation Zrotation
											JOINT mixamorig:RightHandPinky4
											{
												OFFSET -5.218353 0.000000 0.000000
												CHANNELS 3 Xrotation Yrotation Zrotation
												End Site
												{
													OFFSET 0.602097 5.118835 0.816273
												}
											}
										}
									}
								}
							}
						}
					}
				}
			}
		}
	}
	JOINT mixamorig:LeftUpLeg
	{
		OFFSET 18.168400 -13.561905 -0.039000
		CHANNELS 3 Xrotation Yrotation Zrotation
		JOINT mixamorig:LeftLeg
		{
			OFFSET 0.577358 -80.825211 -3.695000
			CHANNELS 3 Xrotation Yrotation Zrotation
			JOINT mixamorig:LeftFoot
			{
				OFFSET -0.577356 -83.370262 -6.520700
				CHANNELS 3 Xrotation Yrotation Zrotation
				JOINT mixamorig:LeftToeBase
				{
					OFFSET 0.750401 -20.798306 25.135401
					CHANNELS 3 Xrotation Yrotation Zrotation
					JOINT mixamorig:LeftToe_End
					{
						OFFSET -0.000500 0.001200 19.917799
						CHANNELS 3 Xrotation Yrotation Zrotation
						End Site
						{
							OFFSET 0.000000 19.917805 0.000000
						}
					}
				}
			}
		}
	}
	JOINT mixamorig:RightUpLeg
	{
		OFFSET -18.162500 -13.585098 -0.041000
		CHANNELS 3 Xrotation Yrotation Zrotation
		JOINT mixamorig:RightLeg
		{
			OFFSET -0.595024 -80.945297 -3.631900
			CHANNELS 3 Xrotation Yrotation Zrotation
			JOINT mixamorig:RightFoot
			{
				OFFSET 0.595024 -83.218193 -6.561200
				CHANNELS 3 Xrotation Yrotation Zrotation
				JOINT mixamorig:RightToeBase
				{
					OFFSET -0.753601 -20.807106 25.115000
					CHANNELS 3 Xrotation Yrotation Zrotation
					JOINT mixamorig:RightToe_End
					{
						OFFSET 0.000299 0.001700 19.918200
						CHANNELS 3 Xrotation Yrotation Zrotation
						End Site
						{
							OFFSET 0.000000 19.918203 0.000000
						}
					}
				}
			}
		}
	}
}
MOTION
Frames: 4
Frame Time: 0.033333
8.523068 190.527206 292.716248 -3.264370 131.222674 8.072184 3.749297 0.119657 -0.110573 7.496799 0.355747 0.282001 7.496799 0.355749 0.282003 -14.327910 -2.026089 -1.133348 -18.253383 -6.033406 2.673774 0.000000 -0.000001 0.000000 0.000000 -0.000001 0.000000 0.000000 -0.000001 0.000000 7.221879 -11.171074 -7.262132 -41.069555 10.709792 -23.644925 0.016255 -66.850265 -0.273327 24.545113 3.729686 27.793524 1.497485 6.297606 -7.299626 -0.599546 -1.781456 -29.131051 0.000003 0.000003 0.000004 -0.000002 0.000001 0.000001 1.041098 -13.113515 -21.909384 -0.965408 0.156289 1.820137 0.000004 0.000007 0.000006 -0.000001 0.000001 0.000000 6.121894 -7.114755 -7.014958 0.112246 0.856911 -23.067576 0.000005 -0.000002 -0.000003 -0.000000 0.000001 -0.000001 -5.737931 12.643761 -12.201077 -0.777245 -3.621955 -35.156582 -0.000001 -0.000006 -0.000002 -0.000000 -0.000001 0.000001 0.976522 26.969454 -22.731768 -1.419390 -6.983053 -37.898035 -0.000003 -0.000005 -0.000001 0.000000 -0.000000 0.000000 -2.929520 3.362643 -0.735876 -62.519474 3.662621 52.590896 -0.079902 57.304447 -0.076131 38.738784 -10.779108 -23.019648 -3.090732 -1.523258 9.335326 -0.435418 1.191302 28.453393 -0.000003 -0.000002 -0.000005 0.000000 -0.000001 -0.000000 2.149024 11.894981 4.886488 -1.208808 -0.215706 -2.143119 0.000003 -0.000002 -0.000015 -0.000002 -0.000002 0.000003 4.645701 7.082329 6.047757 0.155737 -1.240959 15.572946 -0.000008 -0.000000 -0.000001 0.000001 0.000000 -0.000002 -4.798905 -10.182989 20.853916 -0.542460 3.027019 24.262908 -0.000005 0.000008 0.000008 0.000003 -0.000000 -0.000001 -5.855907 -13.635117 30.868541 -0.750022 6.706042 22.532306 -0.000001 0.000007 0.000016 -0.000002 -0.000000 -0.000001 -25.244466 -9.876454 6.373372 19.493498 2.614018 -1.601508 2.467751 -4.669951 -13.599478 0.004498 -0.024998 0.061387 -0.000000 -0.000001 0.000000 -25.818023 -9.141374 -21.570366 40.858622 -3.821498 1.790401 -12.973348 -22.985508 11.091904 1.033557 -0.481349 0.008673 0.000000 -0.000000 0.000000 
8.142342 190.700485 292.400391 -3.521151 132.129326 7.970038 3.846807 0.040450 -0.051724 7.692649 0.202278 0.372695 7.692655 0.202271 0.372699 -14.423230 -2.257301 -1.085403 -19.071727 -6.566580 2.411122 0.000000 -0.000002 -0.000000 0.000000 -0.000002 -0.000000 0.000000 -0.000002 -0.000000 7.488625 -10.644836 -8.875040 -33.920789 12.300284 -22.775510 0.006924 -64.157244 -0.260264 24.082038 1.666133 28.044197 1.524862 6.363928 -7.123413 -0.569108 -1.725942 -28.356459 0.000002 0.000002 0.000004 -0.000000 0.000001 -0.000001 1.446184 -13.467400 -20.616861 -0.970740 0.157733 1.826518 0.000002 0.000010 0.000007 0.000000 0.000003 0.000000 6.128914 -7.262856 -7.225338 0.106497 0.846206 -22.336317 0.000005 -0.000001 -0.000004 -0.000000 -0.000001 -0.000002 -5.313245 12.497931 -11.962194 -0.737120 -3.586488 -34.494337 -0.000003 -0.000006 -0.000001 0.000001 -0.000000 -0.000000 0.977373 27.052060 -22.355634 -1.382324 -6.936039 -37.382704 0.000000 -0.000003 -0.000007 -0.000001 -0.000001 0.000004 -3.059195 2.331784 0.211992 -53.165393 2.785554 45.501522 -0.085794 55.992549 -0.081100 34.711841 -10.801312 -23.179034 -3.010762 -1.526759 8.985642 -0.423368 1.168827 28.041256 -0.000001 -0.000007 -0.000008 -0.000001 0.000002 -0.000001 1.729278 11.941209 5.152140 -1.208952 -0.216177 -2.140966 0.000004 0.000000 -0.000017 0.000000 0.000000 0.000002 4.978977 7.460897 6.084674 0.143547 -1.209273 14.875619 -0.000003 -0.000003 -0.000002 0.000002 -0.000002 0.000001 -4.556441 -10.378376 20.695381 -0.521652 2.980401 23.789590 -0.000002 0.000009 0.000009 -0.000000 -0.000001 0.000001 -5.761532 -14.237617 30.834165 -0.712269 6.615631 21.962743 -0.000002 0.000008 0.000012 -0.000001 0.000000 0.000001 -25.717503 -9.442217 6.411763 19.167136 1.141014 -1.706197 2.817213 -4.510246 -13.207291 0.002981 -0.026197 0.062618 -0.000000 0.000002 0.000000 -25.780602 -9.511430 -21.227651 40.978762 -3.660894 1.874142 -15.527844 -21.693758 10.090518 5.496753 -0.461533 0.032278 -0.000000 -0.000000 0.000000 
7.826013 190.629837 292.116852 -3.639572 132.655675 7.543714 4.009106 -0.092588 0.022920 8.018786 -0.061522 0.488348 8.018785 -0.061528 0.488354 -14.397185 -2.349420 -1.004593 -20.369132 -6.424878 2.384267 -0.000000 0.000002 0.000000 -0.000000 0.000002 0.000000 -0.000000 0.000002 0.000000 7.755519 -10.293933 -10.539304 -26.763097 14.049874 -22.911257 0.013899 -63.526278 -0.227861 23.761984 0.511007 27.202026 1.550613 6.429041 -6.946967 -0.539422 -1.670023 -27.581904 0.000003 0.000001 0.000001 0.000001 -0.000001 0.000000 2.036298 -13.645821 -19.373760 -0.976133 0.159166 1.832987 0.000001 0.000011 0.000008 -0.000001 -0.000001 -0.000001 6.133456 -7.410888 -7.435853 0.100886 0.835462 -21.605051 0.000005 -0.000002 -0.000005 -0.000001 -0.000002 -0.000002 -4.887071 12.357594 -11.722162 -0.697401 -3.550100 -33.832150 -0.000003 -0.000007 -0.000005 -0.000001 0.000000 0.000003 0.976571 27.133497 -21.978857 -1.345675 -6.888720 -36.867456 -0.000003 -0.000004 -0.000002 0.000001 -0.000000 0.000004 -3.168574 1.806695 0.834540 -41.013541 1.898105 40.128690 -0.089575 55.455535 -0.087168 32.285765 -11.382987 -23.415009 -2.930844 -1.531026 8.635996 -0.411440 1.146236 27.629145 0.000000 -0.000005 -0.000009 -0.000001 -0.000000 -0.000002 1.309941 11.985549 5.418661 -1.209089 -0.216646 -2.138871 0.000005 0.000001 -0.000018 0.000000 0.000002 0.000001 5.311621 7.840116 6.117173 0.131641 -1.176693 14.185793 -0.000007 -0.000002 0.000001 -0.000000 0.000000 0.000000 -4.315057 -10.575269 20.538215 -0.501237 2.933623 23.316306 -0.000005 0.000010 0.000004 0.000002 -0.000001 -0.000000 -5.667994 -14.840307 30.798248 -0.675405 6.524856 21.393339 -0.000002 0.000007 0.000014 0.000003 -0.000000 -0.000003 -26.568253 -9.062346 6.741455 20.109983 -0.232989 -1.839471 2.492241 -4.277721 -12.899725 0.002986 -0.026201 0.062612 -0.000000 0.000000 0.000000 -25.854728 -9.964513 -20.585268 41.510925 -1.475501 2.128509 -19.275900 -20.138710 8.086700 8.394336 -0.441506 0.600386 0.000000 0.000000 0.000000 
7.539964 190.340881 292.153015 -3.468096 132.875361 7.044373 4.277593 -0.259281 0.006009 8.557669 -0.396562 0.449727 8.557664 -0.396544 0.449722 -14.381257 -2.301094 -1.050323 -21.725809 -5.896491 2.576986 -0.000000 0.000000 -0.000000 -0.000000 0.000000 -0.000000 -0.000000 0.000000 -0.000000 8.036772 -9.910670 -11.982012 -21.833195 15.970989 -23.842121 0.027595 -63.372585 -0.186418 23.464290 -0.826980 25.697613 1.574589 6.492826 -6.770245 -0.510491 -1.613686 -26.807403 0.000001 0.000001 -0.000000 0.000001 0.000000 0.000001 2.612860 -13.859761 -18.102940 -0.981585 0.160631 1.839527 0.000004 0.000010 0.000005 0.000001 -0.000001 0.000001 6.135333 -7.558796 -7.646556 0.095419 0.824647 -20.873799 0.000008 -0.000002 -0.000003 -0.000001 0.000002 -0.000001 -4.459404 12.222968 -11.481072 -0.658140 -3.512807 -33.170021 -0.000003 -0.000007 -0.000001 0.000001 -0.000000 0.000002 0.974077 27.213564 -21.601406 -1.309460 -6.841086 -36.352258 -0.000001 -0.000004 -0.000006 -0.000002 0.000000 0.000003 -3.265319 1.509131 1.214958 -31.112239 -0.313787 39.093790 -0.089937 55.977642 -0.095677 30.908092 -12.289919 -23.365058 -2.850933 -1.536083 8.286371 -0.399705 1.123594 27.217032 -0.000002 -0.000005 -0.000008 0.000000 0.000000 -0.000004 0.890969 12.027921 5.685887 -1.209220 -0.217080 -2.136836 0.000004 -0.000000 -0.000016 0.000000 0.000001 -0.000000 5.643698 8.219906 6.145240 0.120081 -1.143293 13.502489 -0.000007 -0.000001 -0.000001 -0.000000 0.000000 -0.000001 -4.074777 -10.773677 20.382444 -0.481201 2.886660 22.843078 0.000001 0.000009 0.000004 0.000001 0.000001 -0.000007 -5.575349 -15.443217 30.760754 -0.639463 6.433721 20.824115 0.000001 0.000008 0.000013 0.000001 0.000003 -0.000006 -27.352703 -8.661144 7.071119 21.402738 -1.392971 -1.933005 2.002453 -4.034682 -12.720009 0.002981 -0.026214 0.062616 -0.000000 0.000005 0.000000 -26.075209 -10.321802 -20.131294 42.218885 1.498916 2.433694 -21.902494 -18.353340 6.172306 8.017119 -0.418089 0.658671 0.000000 0.000001 -0.000000 
